<svg width="2592" height="2376" xmlns="http://www.w3.org/2000/svg" xmlns:xlink="http://www.w3.org/1999/xlink" overflow="hidden"><defs><clipPath id="clip0"><rect x="2996" y="144" width="2592" height="2376"/></clipPath></defs><g clip-path="url(#clip0)" transform="translate(-2996 -144)"><path d="M3711.85 691.399 4262.64 462.906 4813.69 690.812 5042.19 1241.6 4814.28 1792.66 4263.49 2021.15 3712.44 1793.24 3483.94 1242.45Z" stroke="#0D8786" stroke-width="6.875" stroke-miterlimit="8" fill="#C9F2E4" fill-rule="evenodd"/><path d="M3885.53 860.897 4260.81 851.995 4691.56 812.942C4632.31 958.927 4573.06 1098.04 4513.81 1244.02L4668.02 1649.57 4262.95 1912.96 4073.97 1434.09 3844.95 1241.8 3885.53 860.897Z" stroke="#7E7E7E" stroke-width="6.875" stroke-miterlimit="8" fill="#D4DCD9" fill-rule="evenodd"/><text font-family="Arial,Arial_MSFontService,sans-serif" font-weight="400" font-size="83" transform="matrix(1 0 0 1 3046.21 1222)">VLN<tspan font-size="83" x="160.417" y="0">-</tspan>QA<tspan font-size="83" x="25.4834" y="99">(Acc.)</tspan><tspan font-size="83" x="177.846" y="716">EgoPlan Val</tspan><tspan font-size="83" x="265.205" y="815">(Acc.)</tspan><tspan font-size="83" x="178.17" y="-655">EgoMCQ</tspan><tspan font-size="83" x="125.462" y="-556">(Mean Acc.)</tspan><tspan font-size="83" x="992.273" y="-973">EgoSchema</tspan><tspan font-size="83" x="1109.12" y="-874">(Acc.)</tspan><tspan font-size="83" x="1850.04" y="-655">EgoTaskQA</tspan><tspan font-size="83" x="1850.04" y="-556">(Mean Acc.)</tspan></text><text font-family="Arial,Arial_MSFontService,sans-serif" font-weight="400" font-size="83" transform="translate(5166.35 1222)">QAEgo<tspan font-size="83" x="265.833" y="0">4</tspan><tspan font-size="83" x="311.667" y="0">D</tspan><tspan font-size="83" x="77.8936" y="99">(Acc.)</tspan></text><text font-family="Arial,Arial_MSFontService,sans-serif" font-weight="400" font-size="83" transform="matrix(1 0 0 1 4851.39 1938)">Charades<tspan font-size="83" x="357.5" y="0">-</tspan><tspan font-size="83" x="385" y="0">Ego</tspan><tspan font-size="83" x="148.936" y="99">(mAP)</tspan><tspan font-size="83" x="-812.903" y="261">EK</tspan><tspan font-size="83" x="-702.903" y="261">-</tspan>100 MIR<tspan font-size="83" x="-705.218" y="360">(mAP)</tspan></text><path d="M22.9179-1.71875 1789.23-1.71839 1789.23 1.71911 22.9179 1.71875ZM27.5 13.75 0 0 27.5-13.75ZM1784.64-13.7496 1812.14 0.000360892 1784.64 13.7504Z" fill="#A6A6A6" transform="matrix(1 0 0 -1 3346.5 1242.5)"/><path d="M4265.22 409.418 4265.22 2080.06 4261.78 2080.06 4261.78 409.418ZM4249.75 414 4263.5 386.5 4277.25 414ZM4277.25 2075.48 4263.5 2102.98 4249.75 2075.48Z" fill="#A6A6A6"/><path d="M17.4062 15.007 1208.65 1208.56 1206.21 1210.99 14.9732 17.4353ZM9.69443 29.1776 0 0 29.1587 9.751ZM1213.92 1196.81 1223.61 1225.99 1194.45 1216.24Z" fill="#A6A6A6" transform="matrix(-1 0 0 1 4877.11 627.5)"/><path d="M4859.6 1838.52 3661.53 644.896 3663.95 642.46 4862.03 1836.09ZM4867.28 1824.34 4877.06 1853.49 4847.87 1843.82ZM3656.28 656.65 3646.5 627.5 3675.69 637.168Z" fill="#A6A6A6"/><path d="M3855.51 836.054 4262.84 667.075 4670.37 835.62 4839.35 1242.95 4670.8 1650.48 4263.47 1819.45 3855.95 1650.91 3686.97 1243.58Z" stroke="#BFBFBF" stroke-width="2.29167" stroke-miterlimit="8" fill="none" fill-rule="evenodd"/><path d="M3991.39 971.938 4262.8 859.346 4534.33 971.649 4646.93 1243.06 4534.62 1514.59 4263.22 1627.18 3991.68 1514.88 3879.09 1243.47Z" stroke="#BFBFBF" stroke-width="2.29167" stroke-miterlimit="8" fill="none" fill-rule="evenodd"/><path d="M4134.6 1115 4262.91 1061.77 4391.27 1114.86 4444.5 1243.17 4391.41 1371.53 4263.11 1424.76 4134.74 1371.67 4081.51 1243.36Z" stroke="#BFBFBF" stroke-width="2.29167" stroke-miterlimit="8" fill="none" fill-rule="evenodd"/><text font-family="Arial,Arial_MSFontService,sans-serif" font-weight="400" font-size="83" transform="matrix(1 0 0 1 4269.77 606)">61.3<tspan font-size="83" x="572.242" y="603">62.1</tspan><tspan font-size="83" x="323.9" y="130">47.5</tspan><tspan font-size="83" x="323.9" y="1194">70.9</tspan><tspan font-size="83" x="-174.233" y="1345">49.7</tspan></text><text font-family="Arial,Arial_MSFontService,sans-serif" font-weight="400" font-size="83" transform="translate(3675.6 1681)">42.7</text><text font-family="Arial,Arial_MSFontService,sans-serif" font-weight="400" font-size="83" transform="matrix(1 0 0 1 3513.16 1224)">44.5<tspan font-size="83" x="162.442" y="-412">64.8</tspan><tspan font-size="83" x="660.299" y="-400">54.4</tspan><tspan font-size="83" x="1055.75" y="115">48.5</tspan><tspan font-size="83" x="922.669" y="-312">44.9</tspan><tspan font-size="83" x="942.062" y="439">68.1</tspan><tspan font-size="83" x="713.283" y="610">47.8</tspan></text><text font-family="Arial,Arial_MSFontService,sans-serif" font-weight="400" font-size="83" transform="translate(3878.78 1472)">29.3</text><text font-family="Arial,Arial_MSFontService,sans-serif" font-weight="400" font-size="83" transform="matrix(1 0 0 1 3868.16 1216)">37.5<tspan font-size="83" x="45.5457" y="-271">61.4</tspan></text><rect x="4522.5" y="2383.5" width="157" height="91" stroke="#7E7E7E" stroke-width="6.875" stroke-miterlimit="8" fill="#D4DCD9"/><text font-family="Calibri,Calibri_MSFontService,sans-serif" font-weight="400" font-size="83" transform="matrix(1 0 0 1 4722.43 2448)">SOTA</text><rect x="3592.5" y="2383.5" width="157" height="91" stroke="#0D8786" stroke-width="6.875" stroke-miterlimit="8" fill="#C9F2E4"/><text font-family="Calibri,Calibri_MSFontService,sans-serif" font-weight="400" font-size="83" transform="matrix(1 0 0 1 3792.63 2448)">Exo2Ego (Ours)</text></g></svg>